<?xml version="1.0" encoding="utf-8"?>
<!-- Generator: Adobe Illustrator 17.0.0, SVG Export Plug-In . SVG Version: 6.00 Build 0)  -->
<!DOCTYPE svg PUBLIC "-//W3C//DTD SVG 1.1//EN" "http://www.w3.org/Graphics/SVG/1.1/DTD/svg11.dtd">
<svg version="1.1" id="Capa_1" xmlns="http://www.w3.org/2000/svg" xmlns:xlink="http://www.w3.org/1999/xlink" x="0px" y="0px"
	 width="612px" height="792px" viewBox="0 0 612 792" enable-background="new 0 0 612 792" xml:space="preserve">
<g>
	<path fill="#C61118" d="M451.35,145.264c-44.364-25.894-92.816-38.838-145.35-38.838c-52.54,0-100.992,12.944-145.356,38.838
		s-79.493,61.023-105.38,105.38C29.37,295.014,16.426,343.466,16.426,396c0,58.568,15.955,111.733,47.883,159.487
		c31.922,47.767,73.77,83.079,125.558,105.949c-1.01-26.897,0.624-49.137,4.902-66.732l37.326-157.608
		c-6.285-12.313-9.425-27.644-9.425-45.998c0-21.365,5.404-39.217,16.212-53.538c10.802-14.333,24.003-21.5,39.59-21.5
		c12.564,0,22.246,4.143,29.033,12.448c6.787,8.293,10.184,18.727,10.184,31.292c0,7.797-1.45,17.289-4.333,28.47
		c-2.895,11.187-6.665,24.131-11.31,38.838c-4.651,14.7-7.98,26.451-9.994,35.251c-3.525,15.331-0.63,28.464,8.672,39.401
		c9.296,10.936,21.616,16.402,36.953,16.402c26.897,0,48.954-14.951,66.176-44.866c17.216-29.915,25.826-66.237,25.826-108.973
		c0-32.926-10.618-59.701-31.861-80.313c-21.243-20.606-50.845-30.918-88.795-30.918c-42.485,0-76.861,13.641-103.122,40.906
		c-26.267,27.277-39.401,59.896-39.401,97.84c0,22.626,6.414,41.61,19.229,56.94c4.272,5.031,5.655,10.428,4.149,16.206
		c-0.508,1.512-1.512,5.282-3.017,11.31s-2.515,9.933-3.017,11.689c-2.013,8.048-6.787,10.563-14.333,7.54
		c-19.358-8.042-34.064-21.989-44.113-41.849c-10.055-19.853-15.08-42.852-15.08-68.997c0-16.842,2.699-33.685,8.103-50.527
		c5.404-16.842,13.819-33.115,25.263-48.831c11.432-15.698,25.135-29.596,41.102-41.659c15.961-12.069,35.38-21.738,58.256-29.039
		c22.87-7.283,47.51-10.93,73.905-10.93c35.692,0,67.742,7.919,96.145,23.752c28.403,15.839,50.086,36.328,65.043,61.463
		c14.951,25.135,22.436,52.026,22.436,80.692c0,37.705-6.542,71.641-19.608,101.806c-13.072,30.165-31.549,53.856-55.429,71.072
		c-23.886,17.216-51.035,25.826-81.445,25.826c-15.337,0-29.664-3.58-42.987-10.747c-13.329-7.167-22.503-15.649-27.528-25.453
		c-11.31,44.486-18.097,71.016-20.361,79.554c-4.78,17.852-14.584,38.458-29.413,61.836c26.897,8.042,54.297,12.063,82.198,12.063
		c52.534,0,100.986-12.944,145.35-38.831c44.364-25.894,79.493-61.023,105.386-105.393c25.888-44.364,38.838-92.81,38.838-145.35
		s-12.95-100.986-38.838-145.356C530.849,206.286,495.714,171.157,451.35,145.264z"/>
</g>
</svg>
