<?xml version="1.0" encoding="utf-8"?>
<!-- Generator: Adobe Illustrator 16.0.0, SVG Export Plug-In . SVG Version: 6.00 Build 0)  -->
<!DOCTYPE svg PUBLIC "-//W3C//DTD SVG 1.1 Basic//EN" "http://www.w3.org/Graphics/SVG/1.1/DTD/svg11-basic.dtd">
<svg version="1.1" baseProfile="basic" id="Capa_1" xmlns="http://www.w3.org/2000/svg" xmlns:xlink="http://www.w3.org/1999/xlink"
	 x="0px" y="0px" width="52px" height="52px" viewBox="0 0 52 52" xml:space="preserve">
<path fill="#000100" d="M38.625,3.491h-24.5c-6.765,0-12.625,5.373-12.625,12v23c0,6.627,5.86,12,12.625,12h24.5
	c6.766,0,11.875-5.373,11.875-12v-23C50.5,8.864,45.391,3.491,38.625,3.491z M17.544,36.514c0,1.028-0.245,1.807-0.734,2.333
	c-0.489,0.527-1.11,0.791-1.863,0.791c-0.753,0-1.365-0.271-1.835-0.81c-0.471-0.539-0.706-1.311-0.706-2.314V21.815
	c0-1.017,0.235-1.781,0.706-2.296c0.47-0.515,1.082-0.771,1.835-0.771c0.752,0,1.374,0.257,1.863,0.771s0.734,1.229,0.734,2.146
	V36.514z M16.792,15.69c-0.502,0.445-1.098,0.668-1.788,0.668c-0.715,0-1.327-0.22-1.835-0.659c-0.508-0.438-0.762-1.06-0.762-1.863
	c0-0.728,0.26-1.327,0.781-1.798c0.521-0.47,1.125-0.705,1.816-0.705c0.665,0,1.254,0.213,1.768,0.641
	c0.516,0.426,0.772,1.047,0.772,1.862C17.544,14.626,17.293,15.245,16.792,15.69z M41.012,36.514c0,1.028-0.235,1.807-0.706,2.333
	c-0.471,0.527-1.082,0.791-1.835,0.791c-0.766,0-1.387-0.271-1.864-0.81c-0.476-0.539-0.714-1.311-0.714-2.314V27.95
	c0-1.693-0.235-2.988-0.706-3.886c-0.47-0.896-1.408-1.346-2.813-1.346c-0.915,0-1.749,0.272-2.502,0.818s-1.305,1.296-1.656,2.249
	c-0.251,0.766-0.376,2.196-0.376,4.291v6.437c0,1.041-0.242,1.822-0.725,2.343c-0.483,0.521-1.108,0.781-1.873,0.781
	c-0.74,0-1.349-0.271-1.825-0.81c-0.478-0.539-0.715-1.311-0.715-2.314V21.665c0-0.979,0.213-1.709,0.64-2.192
	c0.426-0.483,1.01-0.725,1.75-0.725c0.452,0,0.859,0.106,1.223,0.319c0.364,0.214,0.656,0.534,0.875,0.96
	c0.221,0.427,0.33,0.947,0.33,1.562v0.621c0.903-1.192,1.892-2.067,2.963-2.626c1.074-0.558,2.305-0.837,3.698-0.837
	c1.355,0,2.566,0.295,3.633,0.885s1.863,1.424,2.39,2.503c0.339,0.627,0.559,1.305,0.659,2.032c0.1,0.728,0.15,1.656,0.15,2.785
	V36.514z"/>
</svg>
